{
    "asset" : {
        "generator" : "Khronos glTF Blender I/O v0.9.36",
        "version" : "2.0"
    },
    "scene" : 0,
    "scenes" : [
        {
            "name" : "Scene",
            "nodes" : [
                0
            ]
        }
    ],
    "nodes" : [
        {
            "mesh" : 0,
            "name" : "Barren 1"
        }
    ],
    "materials" : [
        {
            "doubleSided" : true,
            "name" : "Barren",
            "pbrMetallicRoughness" : {}
        },
        {
            "doubleSided" : true,
            "name" : "Falt Barren",
            "pbrMetallicRoughness" : {}
        },
        {
            "doubleSided" : true,
            "name" : "Rocky Barren",
            "pbrMetallicRoughness" : {}
        }
    ],
    "meshes" : [
        {
            "name" : "Barren 1",
            "primitives" : [
                {
                    "attributes" : {
                        "POSITION" : 0,
                        "NORMAL" : 1
                    },
                    "indices" : 2,
                    "material" : 0
                },
                {
                    "attributes" : {
                        "POSITION" : 3,
                        "NORMAL" : 4
                    },
                    "indices" : 5,
                    "material" : 1
                },
                {
                    "attributes" : {
                        "POSITION" : 6,
                        "NORMAL" : 7
                    },
                    "indices" : 8,
                    "material" : 2
                }
            ]
        }
    ],
    "accessors" : [
        {
            "bufferView" : 0,
            "componentType" : 5126,
            "count" : 1581,
            "max" : [
                4.999999523162842,
                5,
                5
            ],
            "min" : [
                -4.999999523162842,
                -5,
                -5
            ],
            "type" : "VEC3"
        },
        {
            "bufferView" : 1,
            "componentType" : 5126,
            "count" : 1581,
            "type" : "VEC3"
        },
        {
            "bufferView" : 2,
            "componentType" : 5123,
            "count" : 1581,
            "type" : "SCALAR"
        },
        {
            "bufferView" : 3,
            "componentType" : 5126,
            "count" : 1477,
            "max" : [
                4.940113067626953,
                5,
                4.9415106773376465
            ],
            "min" : [
                -4.999999523162842,
                -4.4721455574035645,
                -4.819303035736084
            ],
            "type" : "VEC3"
        },
        {
            "bufferView" : 4,
            "componentType" : 5126,
            "count" : 1477,
            "type" : "VEC3"
        },
        {
            "bufferView" : 5,
            "componentType" : 5123,
            "count" : 1827,
            "type" : "SCALAR"
        },
        {
            "bufferView" : 6,
            "componentType" : 5126,
            "count" : 3474,
            "max" : [
                5.031776428222656,
                5.055740833282471,
                5.104020118713379
            ],
            "min" : [
                -5.034092903137207,
                -5.054472923278809,
                -5.135991096496582
            ],
            "type" : "VEC3"
        },
        {
            "bufferView" : 7,
            "componentType" : 5126,
            "count" : 3474,
            "type" : "VEC3"
        },
        {
            "bufferView" : 8,
            "componentType" : 5123,
            "count" : 4554,
            "type" : "SCALAR"
        }
    ],
    "bufferViews" : [
        {
            "buffer" : 0,
            "byteLength" : 18972,
            "byteOffset" : 0
        },
        {
            "buffer" : 0,
            "byteLength" : 18972,
            "byteOffset" : 18972
        },
        {
            "buffer" : 0,
            "byteLength" : 3162,
            "byteOffset" : 37944
        },
        {
            "buffer" : 0,
            "byteLength" : 17724,
            "byteOffset" : 41108
        },
        {
            "buffer" : 0,
            "byteLength" : 17724,
            "byteOffset" : 58832
        },
        {
            "buffer" : 0,
            "byteLength" : 3654,
            "byteOffset" : 76556
        },
        {
            "buffer" : 0,
            "byteLength" : 41688,
            "byteOffset" : 80212
        },
        {
            "buffer" : 0,
            "byteLength" : 41688,
            "byteOffset" : 121900
        },
        {
            "buffer" : 0,
            "byteLength" : 9108,
            "byteOffset" : 163588
        }
    ],
    "buffers" : [
        {
            "byteLength" : 172696,
            "uri" : "data:application/octet-stream;base64,"
        }
    ]
}
